<?xml version="1.0" standalone="no"?>
<!DOCTYPE svg PUBLIC "-//W3C//DTD SVG 20010904//EN"
 "http://www.w3.org/TR/2001/REC-SVG-20010904/DTD/svg10.dtd">
<svg version="1.0" xmlns="http://www.w3.org/2000/svg"
 width="478.000000pt" height="444.000000pt" viewBox="0 0 478.000000 444.000000"
 preserveAspectRatio="xMidYMid meet">

<g transform="translate(0.000000,444.000000) scale(0.100000,-0.100000)"
fill="#000000" stroke="none">
<path d="M2560 3184 l0 -1224 740 0 c673 0 741 -1 747 -16 10 -26 -33 -221
-72 -324 -110 -293 -315 -521 -703 -779 -51 -34 -97 -59 -102 -56 -6 4 -10
164 -10 426 l0 419 -295 0 -295 0 0 -805 0 -806 38 7 c118 21 396 99 517 144
143 53 374 164 478 229 167 104 345 250 497 407 100 104 223 257 252 313 7 14
18 32 25 38 15 17 135 253 128 253 -3 0 1 10 9 22 15 25 91 254 100 303 30
166 37 233 41 380 3 94 1 159 -3 147 -6 -19 -16 2 -50 106 -23 72 -42 135 -42
141 0 15 57 14 63 -1 3 -8 6 -6 6 4 1 17 -43 18 -741 20 l-743 3 -3 563 c-2
501 0 562 13 562 22 0 219 -120 313 -189 205 -154 357 -333 464 -548 l41 -83
171 1 c168 1 412 14 329 17 -30 1 -43 6 -43 16 0 8 -4 16 -9 18 -4 2 -32 77
-62 168 -29 91 -56 167 -60 170 -9 7 -69 189 -69 211 0 9 -7 22 -15 29 -8 7
-15 18 -15 26 0 7 -7 17 -16 22 -9 5 -15 12 -15 16 2 7 -29 43 -81 96 -16 15
-28 32 -28 38 0 13 -173 177 -261 248 -301 240 -758 425 -1201 487 l-38 6 0
-1225z"/>
<path d="M1480 4230 c-8 -5 -64 -32 -125 -60 -60 -29 -113 -57 -117 -64 -4 -6
-8 -8 -8 -3 0 7 -48 -20 -60 -33 -3 -3 -25 -18 -50 -32 -52 -31 -193 -137
-264 -200 -218 -193 -406 -440 -530 -698 -149 -313 -206 -568 -206 -925 0
-104 3 -207 6 -227 l7 -38 757 0 c598 0 759 -3 763 -12 4 -14 -4 -1191 -8
-1196 -8 -10 -158 78 -247 145 -248 186 -495 483 -563 680 l-24 68 -203 3
c-112 1 -251 -1 -309 -5 l-105 -8 47 -135 c231 -649 781 -1165 1469 -1374 102
-31 300 -72 390 -81 36 -3 75 -8 88 -11 l22 -4 0 1248 0 1249 -727 8 c-416 4
-732 11 -738 16 -10 10 15 120 40 174 8 17 28 66 45 110 111 284 314 540 571
720 77 54 220 135 239 135 6 0 10 -148 10 -420 l0 -420 248 2 c136 1 210 4
165 5 l-82 4 -52 162 c-29 89 -59 168 -66 175 -7 7 -13 19 -13 25 0 17 -82
271 -90 277 -9 7 -22 45 -71 200 -23 74 -46 137 -50 140 -4 3 -21 50 -39 105
-54 168 -65 200 -71 205 -12 10 -30 80 -24 90 7 12 -4 12 -25 0z m719 -1852
l0 -133 -40 120 c-21 66 -44 122 -49 123 -27 10 -4 22 40 22 l50 0 -1 -132z"/>
<path d="M4410 3155 c0 -5 5 -17 10 -25 5 -8 10 -10 10 -5 0 6 -5 17 -10 25
-5 8 -10 11 -10 5z"/>
<path d="M4632 2460 c0 -19 2 -27 5 -17 2 9 2 25 0 35 -3 9 -5 1 -5 -18z"/>
<path d="M4643 2360 c0 -36 2 -50 4 -32 2 17 2 47 0 65 -2 17 -4 3 -4 -33z"/>
</g>
</svg>
